<?xml version="1.0" encoding="UTF-8"?>
<!--Generator: Apple Native CoreSVG 341-->
<!DOCTYPE svg
PUBLIC "-//W3C//DTD SVG 1.1//EN"
       "http://www.w3.org/Graphics/SVG/1.1/DTD/svg11.dtd">
<svg version="1.1" xmlns="http://www.w3.org/2000/svg" xmlns:xlink="http://www.w3.org/1999/xlink" viewBox="0 0 3300 2200">
 <!--glyph: "", point size: 100.0, font version: "20.0d8e1", template writer version: "138.0.0"-->
 <style>.monochrome-0 {-sfsymbols-motion-group:0;-sfsymbols-layer-tags:-52791b4b331074b}

.multicolor-0:tintColor {-sfsymbols-motion-group:0;-sfsymbols-layer-tags:-52791b4b331074b}

.hierarchical-0:primary {-sfsymbols-motion-group:0;-sfsymbols-layer-tags:-52791b4b331074b}

.SFSymbolsPreviewWireframe {fill:none;opacity:1.0;stroke:black;stroke-width:0.5}
</style>
 <g id="Notes">
  <rect height="2200" id="artboard" style="fill:white;opacity:1" width="3300" x="0" y="0"/>
  <line style="fill:none;stroke:black;opacity:1;stroke-width:0.5;" x1="263" x2="3036" y1="292" y2="292"/>
  <text style="stroke:none;fill:black;font-family:sans-serif;font-size:13;font-weight:bold;" transform="matrix(1 0 0 1 263 322)">Weight/Scale Variations</text>
  <text style="stroke:none;fill:black;font-family:sans-serif;font-size:13;text-anchor:middle;" transform="matrix(1 0 0 1 559.711 322)">Ultralight</text>
  <text style="stroke:none;fill:black;font-family:sans-serif;font-size:13;text-anchor:middle;" transform="matrix(1 0 0 1 856.422 322)">Thin</text>
  <text style="stroke:none;fill:black;font-family:sans-serif;font-size:13;text-anchor:middle;" transform="matrix(1 0 0 1 1153.13 322)">Light</text>
  <text style="stroke:none;fill:black;font-family:sans-serif;font-size:13;text-anchor:middle;" transform="matrix(1 0 0 1 1449.84 322)">Regular</text>
  <text style="stroke:none;fill:black;font-family:sans-serif;font-size:13;text-anchor:middle;" transform="matrix(1 0 0 1 1746.56 322)">Medium</text>
  <text style="stroke:none;fill:black;font-family:sans-serif;font-size:13;text-anchor:middle;" transform="matrix(1 0 0 1 2043.27 322)">Semibold</text>
  <text style="stroke:none;fill:black;font-family:sans-serif;font-size:13;text-anchor:middle;" transform="matrix(1 0 0 1 2339.98 322)">Bold</text>
  <text style="stroke:none;fill:black;font-family:sans-serif;font-size:13;text-anchor:middle;" transform="matrix(1 0 0 1 2636.69 322)">Heavy</text>
  <text style="stroke:none;fill:black;font-family:sans-serif;font-size:13;text-anchor:middle;" transform="matrix(1 0 0 1 2933.4 322)">Black</text>
  <line style="fill:none;stroke:black;opacity:1;stroke-width:0.5;" x1="263" x2="3036" y1="1903" y2="1903"/>
  <g transform="matrix(0.2 0 0 0.2 263 1933)">
   <path d="m46.2402 4.15039c21.7773 0 39.4531-17.627 39.4531-39.4043s-17.6758-39.4043-39.4531-39.4043c-21.7285 0-39.4043 17.627-39.4043 39.4043s17.6758 39.4043 39.4043 39.4043Zm0-7.42188c-17.6758 0-31.9336-14.3066-31.9336-31.9824s14.2578-31.9824 31.9336-31.9824 31.9824 14.3066 31.9824 31.9824-14.3066 31.9824-31.9824 31.9824Zm-17.9688-31.9824c0 2.14844 1.51367 3.61328 3.75977 3.61328h10.498v10.5957c0 2.19727 1.46484 3.71094 3.61328 3.71094 2.24609 0 3.71094-1.51367 3.71094-3.71094v-10.5957h10.5957c2.19727 0 3.71094-1.46484 3.71094-3.61328 0-2.19727-1.51367-3.71094-3.71094-3.71094h-10.5957v-10.5469c0-2.24609-1.46484-3.75977-3.71094-3.75977-2.14844 0-3.61328 1.51367-3.61328 3.75977v10.5469h-10.498c-2.24609 0-3.75977 1.51367-3.75977 3.71094Z"/>
  </g>
  <g transform="matrix(0.2 0 0 0.2 281.506 1933)">
   <path d="m58.5449 14.5508c27.4902 0 49.8047-22.3145 49.8047-49.8047s-22.3145-49.8047-49.8047-49.8047-49.8047 22.3145-49.8047 49.8047 22.3145 49.8047 49.8047 49.8047Zm0-8.30078c-22.9492 0-41.5039-18.5547-41.5039-41.5039s18.5547-41.5039 41.5039-41.5039 41.5039 18.5547 41.5039 41.5039-18.5547 41.5039-41.5039 41.5039Zm-22.6562-41.5039c0 2.39258 1.66016 4.00391 4.15039 4.00391h14.3555v14.4043c0 2.44141 1.66016 4.15039 4.05273 4.15039 2.44141 0 4.15039-1.66016 4.15039-4.15039v-14.4043h14.4043c2.44141 0 4.15039-1.61133 4.15039-4.00391 0-2.44141-1.70898-4.15039-4.15039-4.15039h-14.4043v-14.3555c0-2.49023-1.70898-4.19922-4.15039-4.19922-2.39258 0-4.05273 1.70898-4.05273 4.19922v14.3555h-14.3555c-2.49023 0-4.15039 1.70898-4.15039 4.15039Z"/>
  </g>
  <g transform="matrix(0.2 0 0 0.2 304.924 1933)">
   <path d="m74.8535 28.3203c35.1074 0 63.623-28.4668 63.623-63.5742s-28.5156-63.623-63.623-63.623-63.5742 28.5156-63.5742 63.623 28.4668 63.5742 63.5742 63.5742Zm0-9.08203c-30.127 0-54.4922-24.3652-54.4922-54.4922s24.3652-54.4922 54.4922-54.4922 54.4922 24.3652 54.4922 54.4922-24.3652 54.4922-54.4922 54.4922Zm-28.8574-54.4922c0 2.58789 1.85547 4.39453 4.58984 4.39453h19.7266v19.7754c0 2.68555 1.85547 4.58984 4.44336 4.58984 2.68555 0 4.54102-1.85547 4.54102-4.58984v-19.7754h19.7754c2.68555 0 4.58984-1.80664 4.58984-4.39453 0-2.73438-1.85547-4.58984-4.58984-4.58984h-19.7754v-19.7266c0-2.73438-1.85547-4.63867-4.54102-4.63867-2.58789 0-4.44336 1.9043-4.44336 4.63867v19.7266h-19.7266c-2.73438 0-4.58984 1.85547-4.58984 4.58984Z"/>
  </g>
  <text style="stroke:none;fill:black;font-family:sans-serif;font-size:13;font-weight:bold;" transform="matrix(1 0 0 1 263 1953)">Design Variations</text>
  <text style="stroke:none;fill:black;font-family:sans-serif;font-size:13;" transform="matrix(1 0 0 1 263 1971)">Symbols are supported in up to nine weights and three scales.</text>
  <text style="stroke:none;fill:black;font-family:sans-serif;font-size:13;" transform="matrix(1 0 0 1 263 1989)">For optimal layout with text and other symbols, vertically align</text>
  <text style="stroke:none;fill:black;font-family:sans-serif;font-size:13;" transform="matrix(1 0 0 1 263 2007)">symbols with the adjacent text.</text>
  <line style="fill:none;stroke:#00AEEF;stroke-width:0.5;opacity:1.0;" x1="776" x2="776" y1="1919" y2="1933"/>
  <g transform="matrix(0.2 0 0 0.2 776 1933)">
   <path d="m16.5527 0.78125c2.58789 0 3.85742-0.976562 4.78516-3.71094l6.29883-17.2363h28.8086l6.29883 17.2363c0.927734 2.73438 2.19727 3.71094 4.73633 3.71094 2.58789 0 4.24805-1.5625 4.24805-4.00391 0-0.830078-0.146484-1.61133-0.537109-2.63672l-22.9004-60.9863c-1.12305-2.97852-3.125-4.49219-6.25-4.49219-3.02734 0-5.07812 1.46484-6.15234 4.44336l-22.9004 61.084c-0.390625 1.02539-0.537109 1.80664-0.537109 2.63672 0 2.44141 1.5625 3.95508 4.10156 3.95508Zm13.4766-28.3691 11.8652-32.8613h0.244141l11.8652 32.8613Z"/>
  </g>
  <line style="fill:none;stroke:#00AEEF;stroke-width:0.5;opacity:1.0;" x1="792.836" x2="792.836" y1="1919" y2="1933"/>
  <text style="stroke:none;fill:black;font-family:sans-serif;font-size:13;font-weight:bold;" transform="matrix(1 0 0 1 776 1953)">Margins</text>
  <text style="stroke:none;fill:black;font-family:sans-serif;font-size:13;" transform="matrix(1 0 0 1 776 1971)">Leading and trailing margins on the left and right side of each symbol</text>
  <text style="stroke:none;fill:black;font-family:sans-serif;font-size:13;" transform="matrix(1 0 0 1 776 1989)">can be adjusted by modifying the x-location of the margin guidelines.</text>
  <text style="stroke:none;fill:black;font-family:sans-serif;font-size:13;" transform="matrix(1 0 0 1 776 2007)">Modifications are automatically applied proportionally to all</text>
  <text style="stroke:none;fill:black;font-family:sans-serif;font-size:13;" transform="matrix(1 0 0 1 776 2025)">scales and weights.</text>
  <g transform="matrix(0.2 0 0 0.2 1289 1933)">
   <path d="m14.209 9.32617 8.49609 8.54492c4.29688 4.3457 9.22852 4.05273 13.8672-1.07422l53.4668-58.9355-4.83398-4.88281-53.0762 58.3984c-1.75781 2.00195-3.41797 2.49023-5.76172 0.146484l-5.85938-5.81055c-2.34375-2.29492-1.80664-4.00391 0.195312-5.81055l57.373-54.0039-4.88281-4.83398-57.959 54.4434c-4.93164 4.58984-5.32227 9.47266-1.02539 13.8184Zm32.0801-90.9668c-2.09961 2.05078-2.24609 4.93164-1.07422 6.88477 1.17188 1.80664 3.4668 2.97852 6.68945 2.14844 7.32422-1.70898 14.9414-2.00195 22.0703 2.68555l-2.92969 7.27539c-1.70898 4.15039-0.830078 7.08008 1.85547 9.81445l11.4746 11.5723c2.44141 2.44141 4.49219 2.53906 7.32422 2.05078l5.32227-0.976562 3.32031 3.36914-0.195312 2.7832c-0.195312 2.49023 0.439453 4.39453 2.88086 6.78711l3.80859 3.71094c2.39258 2.39258 5.46875 2.53906 7.8125 0.195312l14.5508-14.5996c2.34375-2.34375 2.24609-5.32227-0.146484-7.71484l-3.85742-3.80859c-2.39258-2.39258-4.24805-3.17383-6.64062-2.97852l-2.88086 0.244141-3.22266-3.17383 1.2207-5.61523c0.634766-2.83203-0.146484-5.0293-3.07617-7.95898l-10.9863-10.9375c-16.6992-16.6016-38.8672-16.2109-53.3203-1.75781Zm7.4707 1.85547c12.1582-8.88672 28.6133-7.37305 39.7461 3.75977l12.1582 12.0605c1.17188 1.17188 1.36719 2.09961 1.02539 3.80859l-1.61133 7.42188 7.51953 7.42188 4.93164-0.292969c1.26953-0.0488281 1.66016 0.0488281 2.63672 1.02539l2.88086 2.88086-12.207 12.207-2.88086-2.88086c-0.976562-0.976562-1.12305-1.36719-1.07422-2.68555l0.341797-4.88281-7.4707-7.42188-7.61719 1.26953c-1.61133 0.341797-2.34375 0.195312-3.56445-0.976562l-10.0098-10.0098c-1.26953-1.17188-1.41602-2.00195-0.634766-3.85742l4.39453-10.4492c-7.8125-7.27539-17.9688-10.4004-28.125-7.42188-0.78125 0.195312-1.07422-0.439453-0.439453-0.976562Z"/>
  </g>
  <text style="stroke:none;fill:black;font-family:sans-serif;font-size:13;font-weight:bold;" transform="matrix(1 0 0 1 1289 1953)">Exporting</text>
  <text style="stroke:none;fill:black;font-family:sans-serif;font-size:13;" transform="matrix(1 0 0 1 1289 1971)">Symbols should be outlined when exporting to ensure the</text>
  <text style="stroke:none;fill:black;font-family:sans-serif;font-size:13;" transform="matrix(1 0 0 1 1289 1989)">design is preserved when submitting to Xcode.</text>
  <text id="template-version" style="stroke:none;fill:black;font-family:sans-serif;font-size:13;text-anchor:end;" transform="matrix(1 0 0 1 3036 1933)">Template v.6.0</text>
  <text style="stroke:none;fill:black;font-family:sans-serif;font-size:13;text-anchor:end;" transform="matrix(1 0 0 1 3036 1951)">Requires Xcode 16 or greater</text>
  <text id="descriptive-name" style="stroke:none;fill:black;font-family:sans-serif;font-size:13;text-anchor:end;" transform="matrix(1 0 0 1 3036 1969)">Generated from neulandiconsf</text>
  <text style="stroke:none;fill:black;font-family:sans-serif;font-size:13;text-anchor:end;" transform="matrix(1 0 0 1 3036 1987)">Typeset at 100.0 points</text>
  <text style="stroke:none;fill:black;font-family:sans-serif;font-size:13;" transform="matrix(1 0 0 1 263 726)">Small</text>
  <text style="stroke:none;fill:black;font-family:sans-serif;font-size:13;" transform="matrix(1 0 0 1 263 1156)">Medium</text>
  <text style="stroke:none;fill:black;font-family:sans-serif;font-size:13;" transform="matrix(1 0 0 1 263 1586)">Large</text>
 </g>
 <g id="Guides">
  <g id="H-reference" style="fill:#27AAE1;stroke:none;" transform="matrix(1 0 0 1 339 696)">
   <path d="M0.993654 0L3.63775 0L29.3281-67.1323L30.0303-67.1323L30.0303-70.459L28.1226-70.459ZM11.6885-24.4799L46.9815-24.4799L46.2315-26.7285L12.4385-26.7285ZM55.1196 0L57.7637 0L30.6382-70.459L29.4326-70.459L29.4326-67.1323Z"/>
  </g>
  <line id="Baseline-S" style="fill:none;stroke:#27AAE1;opacity:1;stroke-width:0.5;" x1="263" x2="3036" y1="696" y2="696"/>
  <line id="Capline-S" style="fill:none;stroke:#27AAE1;opacity:1;stroke-width:0.5;" x1="263" x2="3036" y1="625.541" y2="625.541"/>
  <g id="H-reference" style="fill:#27AAE1;stroke:none;" transform="matrix(1 0 0 1 339 1126)">
   <path d="M0.993654 0L3.63775 0L29.3281-67.1323L30.0303-67.1323L30.0303-70.459L28.1226-70.459ZM11.6885-24.4799L46.9815-24.4799L46.2315-26.7285L12.4385-26.7285ZM55.1196 0L57.7637 0L30.6382-70.459L29.4326-70.459L29.4326-67.1323Z"/>
  </g>
  <line id="Baseline-M" style="fill:none;stroke:#27AAE1;opacity:1;stroke-width:0.5;" x1="263" x2="3036" y1="1126" y2="1126"/>
  <line id="Capline-M" style="fill:none;stroke:#27AAE1;opacity:1;stroke-width:0.5;" x1="263" x2="3036" y1="1055.54" y2="1055.54"/>
  <g id="H-reference" style="fill:#27AAE1;stroke:none;" transform="matrix(1 0 0 1 339 1556)">
   <path d="M0.993654 0L3.63775 0L29.3281-67.1323L30.0303-67.1323L30.0303-70.459L28.1226-70.459ZM11.6885-24.4799L46.9815-24.4799L46.2315-26.7285L12.4385-26.7285ZM55.1196 0L57.7637 0L30.6382-70.459L29.4326-70.459L29.4326-67.1323Z"/>
  </g>
  <line id="Baseline-L" style="fill:none;stroke:#27AAE1;opacity:1;stroke-width:0.5;" x1="263" x2="3036" y1="1556" y2="1556"/>
  <line id="Capline-L" style="fill:none;stroke:#27AAE1;opacity:1;stroke-width:0.5;" x1="263" x2="3036" y1="1485.54" y2="1485.54"/>
  <line id="right-margin-Black-S" style="fill:none;stroke:#00AEEF;stroke-width:0.5;opacity:1.0;" x1="2977.69" x2="2977.69" y1="600.785" y2="720.121"/>
  <line id="left-margin-Black-S" style="fill:none;stroke:#00AEEF;stroke-width:0.5;opacity:1.0;" x1="2889.11" x2="2889.11" y1="600.785" y2="720.121"/>
  <line id="right-margin-Regular-S" style="fill:none;stroke:#00AEEF;stroke-width:0.5;opacity:1.0;" x1="1494.13" x2="1494.13" y1="600.785" y2="720.121"/>
  <line id="left-margin-Regular-S" style="fill:none;stroke:#00AEEF;stroke-width:0.5;opacity:1.0;" x1="1405.56" x2="1405.56" y1="600.785" y2="720.121"/>
  <line id="right-margin-Ultralight-S" style="fill:none;stroke:#00AEEF;stroke-width:0.5;opacity:1.0;" x1="604" x2="604" y1="600.785" y2="720.121"/>
  <line id="left-margin-Ultralight-S" style="fill:none;stroke:#00AEEF;stroke-width:0.5;opacity:1.0;" x1="515.423" x2="515.423" y1="600.785" y2="720.121"/>
 </g>
 <g id="Symbols">
  <g id="Black-S" transform="matrix(1.00656 0 0 1.00656 2889.11 696)">
   <path class="monochrome-0 multicolor-0:tintColor hierarchical-0:primary SFSymbolsPreviewWireframe" d="M62.055-14.603C65.744-10.71 68.021-5.69 68.521-0.348C62.494 4.217 55.221 6.836 47.669 7.161C47.119 7.161 46.57 7.161 46.011 7.161C37.729 7.169 29.68 4.414 23.137-0.668C22.339-1.289 21.567-1.937 20.822-2.629C21.054-3.836 21.38-5.024 21.798-6.18C23.26-10.259 25.79-13.87 29.124-16.636C29.966-17.335 30.855-17.975 31.785-18.553C32.706-19.133 33.67-19.643 34.667-20.079C35.968-20.67 37.323-21.137 38.711-21.473C38.711-21.775 38.711-22.077 38.658-22.361C38.543-24.02 38.374-25.654 38.135-27.269L38.135-27.269C37.922-28.769 37.656-30.251 37.346-31.707C37.239-32.213 37.124-32.71 37-33.207C36.41-35.674 35.676-38.105 34.8-40.485L34.8-40.485C34.259-41.941 33.674-43.379 33.026-44.781C32.902-45.065 32.769-45.341 32.627-45.625C32.299-45.349 31.971-45.057 31.66-44.737C31.35-44.418 30.774-43.849 30.392-43.432C29.284-42.192 28.322-40.828 27.527-39.367C25.282-35.164 24.502-30.332 25.31-25.636C25.363-25.263 25.443-24.89 25.532-24.526C25.301-24.864 25.08-25.219 24.876-25.574C21.827-30.778 21.258-37.072 23.323-42.74C15.055-38.987 9.757-30.728 9.789-21.642C9.789-21.455 9.789-21.26 9.789-21.074C9.05-24.032 8.675-27.069 8.672-30.118C8.672-30.908 8.672-31.689 8.743-32.461C9.159-39.403 11.513-46.088 15.536-51.758C14.411-51.919 13.276-51.999 12.139-51.998C10.757-51.999 9.377-51.877 8.015-51.634C11.139-56.707 16.669-59.795 22.623-59.791C22.827-59.791 23.031-59.791 23.235-59.791C23.308-59.799 23.383-59.799 23.457-59.791C23.465-59.861 23.483-59.93 23.51-59.995C23.652-60.551 23.82-60.551 24.015-61.646C26.747-69.493 33.345-75.365 41.452-77.161C39.554-73.978 38.43-70.394 38.17-66.696C48.835-68.991 59.968-66.503 68.645-59.888C59.802-64.493 49.006-62.92 41.842-55.983L42.295-55.983C49.416-55.982 56.009-52.224 59.643-46.095C55.879-49.059 51.226-50.667 46.437-50.657C45.284-50.658 44.133-50.563 42.995-50.373C41.453-50.134 39.945-49.717 38.499-49.131C37.993-48.935 37.496-48.713 37.017-48.474C37.946-47.219 38.833-47.219 39.678-44.613C39.9-44.275 40.113-43.929 40.317-43.583C42.955-39.267 45.077-34.655 46.641-29.843C47.501-27.207 48.188-24.518 48.698-21.792C50.789-21.429 52.82-20.784 54.738-19.875C55.164-19.689 55.572-19.476 55.98-19.254C57.542-18.424 59.006-17.421 60.343-16.263C60.944-15.741 61.515-15.187 62.055-14.603ZM57.984-31.592C59.422-26.594 64.633-23.706 69.629-25.139C71.632-25.705 73.387-26.927 74.614-28.609C70.458-29.984 67.251-33.327 66.046-37.539C65.485-39.483 65.382-41.53 65.745-43.521C65.304-43.466 64.868-43.377 64.441-43.255C62.52-42.701 60.822-41.555 59.589-39.979C59.256-39.55 58.959-39.092 58.703-38.613C57.555-36.456 57.297-33.936 57.984-31.592Z"/>
  </g>
  <g id="Regular-S" transform="matrix(1.00656 0 0 1.00656 1405.56 696)">
   <path class="monochrome-0 multicolor-0:tintColor hierarchical-0:primary SFSymbolsPreviewWireframe" d="M62.055-14.603C65.744-10.71 68.021-5.69 68.521-0.348C62.494 4.217 55.221 6.836 47.669 7.161C47.119 7.161 46.57 7.161 46.011 7.161C37.729 7.169 29.68 4.414 23.137-0.668C22.339-1.289 21.567-1.937 20.822-2.629C21.054-3.836 21.38-5.024 21.798-6.18C23.26-10.259 25.79-13.87 29.124-16.636C29.966-17.335 30.855-17.975 31.785-18.553C32.706-19.133 33.67-19.643 34.667-20.079C35.968-20.67 37.323-21.137 38.711-21.473C38.711-21.775 38.711-22.077 38.658-22.361C38.543-24.02 38.374-25.654 38.135-27.269L38.135-27.269C37.922-28.769 37.656-30.251 37.346-31.707C37.239-32.213 37.124-32.71 37-33.207C36.41-35.674 35.676-38.105 34.8-40.485L34.8-40.485C34.259-41.941 33.674-43.379 33.026-44.781C32.902-45.065 32.769-45.341 32.627-45.625C32.299-45.349 31.971-45.057 31.66-44.737C31.35-44.418 30.774-43.849 30.392-43.432C29.284-42.192 28.322-40.828 27.527-39.367C25.283-35.164 24.502-30.332 25.31-25.636C25.363-25.263 25.443-24.89 25.532-24.526C25.301-24.864 25.08-25.219 24.876-25.574C21.828-30.778 21.258-37.072 23.324-42.74C15.055-38.987 9.757-30.728 9.789-21.642C9.789-21.455 9.789-21.26 9.789-21.074C9.05-24.032 8.675-27.069 8.672-30.118C8.672-30.908 8.672-31.689 8.743-32.461C9.159-39.403 11.513-46.088 15.536-51.758C14.411-51.919 13.276-51.999 12.14-51.998C10.757-51.999 9.377-51.877 8.015-51.634C11.139-56.707 16.669-59.795 22.623-59.791C22.827-59.791 23.031-59.791 23.235-59.791C23.308-59.799 23.383-59.799 23.457-59.791C23.465-59.861 23.483-59.93 23.51-59.995C23.652-60.551 23.82-60.551 24.015-61.646C26.747-69.493 33.345-75.365 41.452-77.161C39.554-73.978 38.43-70.394 38.17-66.696C48.835-68.991 59.968-66.503 68.645-59.888C59.802-64.493 49.006-62.92 41.842-55.983L42.295-55.983C49.416-55.982 56.009-52.224 59.643-46.095C55.879-49.059 51.226-50.667 46.437-50.657C45.284-50.658 44.133-50.563 42.995-50.373C41.453-50.134 39.945-49.717 38.499-49.131C37.993-48.935 37.496-48.713 37.017-48.474C37.946-47.219 38.833-47.219 39.678-44.613C39.9-44.275 40.113-43.929 40.317-43.583C42.955-39.267 45.077-34.655 46.641-29.843C47.501-27.207 48.188-24.518 48.698-21.792C50.789-21.429 52.82-20.784 54.738-19.875C55.164-19.689 55.572-19.476 55.98-19.254C57.542-18.424 59.006-17.421 60.343-16.263C60.944-15.741 61.515-15.187 62.055-14.603ZM57.984-31.592C59.422-26.594 64.634-23.706 69.629-25.139C71.632-25.705 73.387-26.927 74.614-28.609C70.458-29.984 67.251-33.327 66.046-37.539C65.485-39.483 65.382-41.53 65.745-43.521C65.304-43.466 64.868-43.377 64.441-43.255C62.52-42.701 60.822-41.555 59.589-39.979C59.256-39.55 58.959-39.092 58.703-38.613C57.555-36.456 57.297-33.936 57.984-31.592Z"/>
  </g>
  <g id="Ultralight-S" transform="matrix(1.00656 0 0 1.00656 515.423 696)">
   <path class="monochrome-0 multicolor-0:tintColor hierarchical-0:primary SFSymbolsPreviewWireframe" d="M62.055-14.603C65.744-10.71 68.021-5.69 68.521-0.348C62.494 4.217 55.221 6.836 47.669 7.161C47.119 7.161 46.57 7.161 46.011 7.161C37.729 7.169 29.68 4.414 23.137-0.668C22.339-1.289 21.567-1.937 20.822-2.629C21.054-3.836 21.38-5.024 21.798-6.18C23.26-10.259 25.79-13.87 29.124-16.636C29.966-17.335 30.855-17.975 31.785-18.553C32.706-19.133 33.67-19.643 34.667-20.079C35.968-20.67 37.323-21.137 38.711-21.473C38.711-21.775 38.711-22.077 38.658-22.361C38.543-24.02 38.374-25.654 38.135-27.269L38.135-27.269C37.922-28.769 37.656-30.251 37.346-31.707C37.239-32.213 37.124-32.71 37-33.207C36.41-35.674 35.676-38.105 34.8-40.485L34.8-40.485C34.259-41.941 33.674-43.379 33.026-44.781C32.902-45.065 32.769-45.341 32.627-45.625C32.299-45.349 31.971-45.057 31.66-44.737C31.35-44.418 30.774-43.849 30.392-43.432C29.284-42.192 28.322-40.828 27.527-39.367C25.283-35.164 24.502-30.332 25.31-25.636C25.363-25.263 25.443-24.89 25.532-24.526C25.301-24.864 25.08-25.219 24.876-25.574C21.827-30.778 21.258-37.072 23.324-42.74C15.055-38.987 9.757-30.728 9.789-21.642C9.789-21.455 9.789-21.26 9.789-21.074C9.05-24.032 8.675-27.069 8.672-30.118C8.672-30.908 8.672-31.689 8.743-32.461C9.159-39.403 11.513-46.088 15.536-51.758C14.411-51.919 13.276-51.999 12.14-51.998C10.757-51.999 9.377-51.877 8.015-51.634C11.139-56.707 16.669-59.795 22.623-59.791C22.827-59.791 23.031-59.791 23.235-59.791C23.308-59.799 23.383-59.799 23.457-59.791C23.465-59.861 23.483-59.93 23.51-59.995C23.652-60.551 23.82-60.551 24.015-61.646C26.747-69.493 33.345-75.365 41.452-77.161C39.554-73.978 38.43-70.394 38.17-66.696C48.835-68.991 59.968-66.503 68.645-59.888C59.802-64.493 49.006-62.92 41.842-55.983L42.295-55.983C49.416-55.982 56.009-52.224 59.643-46.095C55.879-49.059 51.226-50.667 46.437-50.657C45.284-50.658 44.133-50.563 42.995-50.373C41.453-50.134 39.945-49.717 38.499-49.131C37.993-48.935 37.496-48.713 37.017-48.474C37.946-47.219 38.833-47.219 39.678-44.613C39.9-44.275 40.113-43.929 40.317-43.583C42.955-39.267 45.077-34.655 46.641-29.843C47.501-27.207 48.188-24.518 48.698-21.792C50.789-21.429 52.82-20.784 54.738-19.875C55.164-19.689 55.572-19.476 55.98-19.254C57.542-18.424 59.006-17.421 60.343-16.263C60.944-15.741 61.515-15.187 62.055-14.603ZM57.984-31.592C59.422-26.594 64.634-23.706 69.629-25.139C71.632-25.705 73.387-26.927 74.614-28.609C70.458-29.984 67.251-33.327 66.046-37.539C65.485-39.483 65.382-41.53 65.745-43.521C65.304-43.466 64.868-43.377 64.441-43.255C62.52-42.701 60.822-41.555 59.589-39.979C59.256-39.55 58.959-39.092 58.703-38.613C57.555-36.456 57.297-33.936 57.984-31.592Z"/>
  </g>
 </g>
</svg>
