<?xml version="1.0" encoding="UTF-8" standalone="no"?>
<svg
   viewBox="0 0 372.78999 471.63475"
   version="1.1"
   id="svg2"
   width="372.78998"
   height="471.63477"
   xmlns="http://www.w3.org/2000/svg"
   xmlns:svg="http://www.w3.org/2000/svg">
  <defs
     id="defs1">
    <style
       id="style1">.cls-1{isolation:isolate;}.cls-2,.cls-3{fill:#41ff00;}.cls-3{mix-blend-mode:screen;opacity:0.5;}</style>
  </defs>
  <g
     class="cls-1"
     id="g2"
     style="fill:#000000;fill-opacity:1;stroke-width:0.201423"
     transform="scale(4.9645755)">
    <g
       id="Ebene_2"
       data-name="Ebene 2"
       style="fill:#000000;fill-opacity:1;stroke-width:0.201423">
      <g
         id="Aufteilung"
         style="fill:#000000;fill-opacity:1;stroke-width:0.201423">
        <g
           id="Bild_Groß"
           data-name="Bild Groß"
           style="fill:#000000;fill-opacity:1;stroke-width:0.201423">
          <path
             class="cls-2"
             d="M 60.93,70.48 A 27,27 0 0 1 68.22,86.54 41.94,41.94 0 0 1 44.71,95 c -0.62,0 -1.24,0 -1.87,0 A 42,42 0 0 1 17.05,86.18 c -0.9,-0.7 -1.77,-1.43 -2.61,-2.21 a 26.29,26.29 0 0 1 1.1,-4 27.26,27.26 0 0 1 8.26,-11.78 27,27 0 0 1 3,-2.16 24.59,24.59 0 0 1 3.25,-1.72 25.58,25.58 0 0 1 4.56,-1.57 c 0,-0.34 0,-0.68 -0.06,-1 -0.13,-1.87 -0.32,-3.71 -0.59,-5.53 v 0 c -0.24,-1.69 -0.54,-3.36 -0.89,-5 -0.12,-0.57 -0.25,-1.13 -0.39,-1.69 a 72.6,72.6 0 0 0 -2.48,-8.2 v 0 c -0.61,-1.64 -1.27,-3.26 -2,-4.84 -0.14,-0.32 -0.29,-0.63 -0.45,-0.95 -0.37,0.31 -0.74,0.64 -1.09,1 -0.35,0.36 -1,1 -1.43,1.47 A 24.26,24.26 0 0 0 22,42.58 24.13,24.13 0 0 0 19.5,58.05 c 0.06,0.42 0.15,0.84 0.25,1.25 -0.26,-0.38 -0.51,-0.78 -0.74,-1.18 A 22.8,22.8 0 0 1 17.26,38.78 26,26 0 0 0 2,62.55 c 0,0.21 0,0.43 0,0.64 A 42.17,42.17 0 0 1 0.74,53 c 0,-0.89 0,-1.77 0.08,-2.64 A 41.88,41.88 0 0 1 8.48,28.62 26.87,26.87 0 0 0 4.65,28.35 26.37,26.37 0 0 0 0,28.76 19.33,19.33 0 0 1 16.47,19.57 c 0.23,0 0.46,0 0.69,0 a 1.07,1.07 0 0 1 0.25,0 0.86,0.86 0 0 1 0.06,-0.23 q 0.24,-0.94 0.57,-1.86 A 27,27 0 0 1 37.7,0 26.66,26.66 0 0 0 34,11.79 a 42.1,42.1 0 0 1 34.36,7.67 26.12,26.12 0 0 0 -30.22,4.4 h 0.51 A 22.75,22.75 0 0 1 58.21,35 24,24 0 0 0 43.32,29.86 a 23.62,23.62 0 0 0 -3.88,0.32 22.78,22.78 0 0 0 -5.07,1.4 c -0.57,0.22 -1.13,0.47 -1.67,0.74 q 1.57,2.12 3,4.35 c 0.25,0.38 0.49,0.77 0.72,1.16 a 72.83,72.83 0 0 1 7.13,15.48 71.72,71.72 0 0 1 2.32,9.07 26.54,26.54 0 0 1 6.81,2.16 c 0.48,0.21 0.94,0.45 1.4,0.7 a 26.52,26.52 0 0 1 4.92,3.37 24.6,24.6 0 0 1 1.93,1.87 z"
             id="path1"
             style="fill:#000000;fill-opacity:1;stroke-width:0.201423" />
          <path
             class="cls-3"
             d="m 56.34,51.34 a 10.62,10.62 0 0 0 13.13,7.27 10.48,10.48 0 0 0 5.62,-3.91 14.92,14.92 0 0 1 -9.66,-10.06 14.74,14.74 0 0 1 -0.34,-6.74 9.59,9.59 0 0 0 -1.47,0.3 10.72,10.72 0 0 0 -5.47,3.69 10.83,10.83 0 0 0 -1,1.54 10.52,10.52 0 0 0 -0.81,7.91 z"
             id="path2"
             style="fill:#000000;fill-opacity:1;stroke-width:0.201423" />
        </g>
      </g>
    </g>
  </g>
</svg>
