<svg width="199" height="55" viewBox="0 0 199 55" fill="none" xmlns="http://www.w3.org/2000/svg">
<rect x="0.5" y="0.5" width="198" height="54" rx="27" fill="#1F1F1F"/>
<path d="M57 23.791H21V18.1456C21 15.0809 23.6422 12.5001 26.7798 12.5001H51.2202C54.3578 12.5001 57 15.0809 57 18.1456V23.791Z" fill="#34A853"/>
<path d="M57 29H21V23C21 19.7429 23.6422 17 26.7798 17H51.2202C54.3578 17 57 19.7429 57 23V29Z" fill="#FBBC04"/>
<path d="M57 34H21V28C21 24.7429 23.6422 22 26.7798 22H51.2202C54.3578 22 57 24.7429 57 28V34Z" fill="#EA4335"/>
<path d="M21 25.2409L43.8493 30.4025C46.4795 31.0477 49.4384 30.4025 51.5753 28.7895L57 24.9183V37.0157C57 40.0804 54.3699 42.4999 51.2466 42.4999H26.7534C23.6301 42.4999 21 40.0804 21 37.0157V25.2409Z" fill="url(#paint0_linear_1819_24320)"/>
<path d="M70.053 21.5V12.192H71.483V16.066H75.838V12.192H77.255V21.5H75.838V17.418H71.483V21.5H70.053ZM79.9307 13.895C79.6707 13.895 79.4453 13.804 79.2547 13.622C79.0727 13.4313 78.9817 13.206 78.9817 12.946C78.9817 12.686 79.0727 12.465 79.2547 12.283C79.4453 12.101 79.6707 12.01 79.9307 12.01C80.1907 12.01 80.4117 12.101 80.5937 12.283C80.7843 12.465 80.8797 12.686 80.8797 12.946C80.8797 13.206 80.7843 13.4313 80.5937 13.622C80.4117 13.804 80.1907 13.895 79.9307 13.895ZM79.2287 21.5V14.87H80.6327V21.5H79.2287ZM82.3747 21.5V14.87H83.7007V15.78H83.7787C83.9693 15.4593 84.251 15.195 84.6237 14.987C85.005 14.7703 85.421 14.662 85.8717 14.662C86.6863 14.662 87.2973 14.9047 87.7047 15.39C88.112 15.8753 88.3157 16.5167 88.3157 17.314V21.5H86.9247V17.496C86.9247 16.9587 86.7903 16.5687 86.5217 16.326C86.253 16.0747 85.902 15.949 85.4687 15.949C85.1307 15.949 84.836 16.0443 84.5847 16.235C84.3333 16.417 84.134 16.6597 83.9867 16.963C83.848 17.2663 83.7787 17.5913 83.7787 17.938V21.5H82.3747ZM89.5777 21.5V20.33L93.2697 16.092H89.6947V14.87H94.9857V16.04L91.3067 20.278H95.0897V21.5H89.5777ZM98.808 21.708C97.9933 21.708 97.378 21.4653 96.962 20.98C96.5547 20.486 96.351 19.8187 96.351 18.978V14.87H97.755V18.783C97.755 19.3463 97.885 19.7623 98.145 20.031C98.4137 20.291 98.7473 20.421 99.146 20.421C99.5013 20.421 99.809 20.33 100.069 20.148C100.338 19.9573 100.541 19.7147 100.68 19.42C100.827 19.1167 100.901 18.7873 100.901 18.432V14.87H102.292V21.5H100.979V20.603H100.901C100.71 20.915 100.424 21.1793 100.043 21.396C99.6703 21.604 99.2587 21.708 98.808 21.708ZM104.761 21.5V16.092H103.552V14.87H104.761V14.324C104.761 13.856 104.861 13.4573 105.06 13.128C105.26 12.79 105.528 12.5343 105.866 12.361C106.213 12.179 106.603 12.088 107.036 12.088C107.27 12.088 107.47 12.1053 107.634 12.14C107.808 12.166 107.951 12.2007 108.063 12.244V13.609C107.951 13.5657 107.821 13.5223 107.673 13.479C107.535 13.427 107.361 13.401 107.153 13.401C106.885 13.401 106.651 13.492 106.451 13.674C106.252 13.8473 106.152 14.103 106.152 14.441V14.87H107.816V16.092H106.152V21.5H104.761ZM111.44 21.708C110.625 21.708 110.01 21.4653 109.594 20.98C109.186 20.486 108.983 19.8187 108.983 18.978V14.87H110.387V18.783C110.387 19.3463 110.517 19.7623 110.777 20.031C111.045 20.291 111.379 20.421 111.778 20.421C112.133 20.421 112.441 20.33 112.701 20.148C112.969 19.9573 113.173 19.7147 113.312 19.42C113.459 19.1167 113.533 18.7873 113.533 18.432V14.87H114.924V21.5H113.611V20.603H113.533C113.342 20.915 113.056 21.1793 112.675 21.396C112.302 21.604 111.89 21.708 111.44 21.708ZM113.104 13.518C112.887 13.518 112.696 13.44 112.532 13.284C112.376 13.1193 112.298 12.9243 112.298 12.699C112.298 12.4737 112.376 12.2873 112.532 12.14C112.696 11.984 112.887 11.906 113.104 11.906C113.338 11.906 113.533 11.984 113.689 12.14C113.845 12.2873 113.923 12.4737 113.923 12.699C113.923 12.9243 113.845 13.1193 113.689 13.284C113.533 13.44 113.338 13.518 113.104 13.518ZM110.803 13.518C110.586 13.518 110.395 13.44 110.231 13.284C110.075 13.1193 109.997 12.9243 109.997 12.699C109.997 12.4737 110.075 12.2873 110.231 12.14C110.395 11.984 110.586 11.906 110.803 11.906C111.037 11.906 111.227 11.984 111.375 12.14C111.531 12.2873 111.609 12.4737 111.609 12.699C111.609 12.9243 111.531 13.1193 111.375 13.284C111.227 13.44 111.037 13.518 110.803 13.518ZM119.502 24.516C118.922 24.516 118.419 24.4207 117.994 24.23C117.578 24.048 117.24 23.8097 116.98 23.515C116.72 23.229 116.534 22.9343 116.421 22.631L117.721 22.085C117.86 22.4317 118.081 22.7133 118.384 22.93C118.696 23.1553 119.069 23.268 119.502 23.268C120.109 23.268 120.586 23.086 120.932 22.722C121.288 22.358 121.465 21.8423 121.465 21.175V20.538H121.387C121.179 20.85 120.889 21.1013 120.516 21.292C120.152 21.474 119.736 21.565 119.268 21.565C118.705 21.565 118.189 21.422 117.721 21.136C117.253 20.85 116.876 20.4513 116.59 19.94C116.304 19.42 116.161 18.8133 116.161 18.12C116.161 17.418 116.304 16.8113 116.59 16.3C116.876 15.78 117.253 15.377 117.721 15.091C118.189 14.805 118.705 14.662 119.268 14.662C119.736 14.662 120.152 14.7573 120.516 14.948C120.889 15.1387 121.179 15.39 121.387 15.702H121.465V14.87H122.804V21.149C122.804 21.8683 122.661 22.4793 122.375 22.982C122.098 23.4847 121.712 23.866 121.218 24.126C120.724 24.386 120.152 24.516 119.502 24.516ZM119.515 20.291C119.862 20.291 120.183 20.2087 120.477 20.044C120.772 19.8707 121.01 19.6237 121.192 19.303C121.374 18.9737 121.465 18.5793 121.465 18.12C121.465 17.6433 121.374 17.2447 121.192 16.924C121.01 16.5947 120.772 16.3477 120.477 16.183C120.183 16.0183 119.862 15.936 119.515 15.936C119.169 15.936 118.844 16.0227 118.54 16.196C118.246 16.3607 118.007 16.6033 117.825 16.924C117.643 17.2447 117.552 17.6433 117.552 18.12C117.552 18.588 117.643 18.9867 117.825 19.316C118.007 19.6367 118.246 19.8793 118.54 20.044C118.844 20.2087 119.169 20.291 119.515 20.291ZM127.412 21.708C126.762 21.708 126.182 21.5563 125.67 21.253C125.159 20.9497 124.756 20.5337 124.461 20.005C124.175 19.4763 124.032 18.874 124.032 18.198C124.032 17.5653 124.171 16.9803 124.448 16.443C124.726 15.9057 125.111 15.4767 125.605 15.156C126.108 14.8267 126.684 14.662 127.334 14.662C128.019 14.662 128.6 14.8093 129.076 15.104C129.562 15.3987 129.93 15.8017 130.181 16.313C130.433 16.8243 130.558 17.4007 130.558 18.042C130.558 18.1373 130.554 18.224 130.545 18.302C130.545 18.38 130.541 18.4407 130.532 18.484H125.41C125.48 19.1427 125.709 19.6367 126.099 19.966C126.498 20.2953 126.949 20.46 127.451 20.46C127.902 20.46 128.275 20.3603 128.569 20.161C128.864 19.953 129.098 19.6973 129.271 19.394L130.428 19.953C130.142 20.473 129.752 20.8977 129.258 21.227C128.764 21.5477 128.149 21.708 127.412 21.708ZM127.347 15.858C126.879 15.858 126.481 16.001 126.151 16.287C125.822 16.573 125.601 16.9543 125.488 17.431H129.167C129.15 17.2057 129.076 16.9717 128.946 16.729C128.816 16.4863 128.617 16.2827 128.348 16.118C128.088 15.9447 127.755 15.858 127.347 15.858ZM131.861 21.5V14.87H133.187V15.78H133.265C133.456 15.4593 133.737 15.195 134.11 14.987C134.491 14.7703 134.907 14.662 135.358 14.662C136.173 14.662 136.784 14.9047 137.191 15.39C137.598 15.8753 137.802 16.5167 137.802 17.314V21.5H136.411V17.496C136.411 16.9587 136.277 16.5687 136.008 16.326C135.739 16.0747 135.388 15.949 134.955 15.949C134.617 15.949 134.322 16.0443 134.071 16.235C133.82 16.417 133.62 16.6597 133.473 16.963C133.334 17.2663 133.265 17.5913 133.265 17.938V21.5H131.861ZM142.098 21.5V20.33L145.79 16.092H142.215V14.87H147.506V16.04L143.827 20.278H147.61V21.5H142.098ZM151.328 21.708C150.514 21.708 149.898 21.4653 149.482 20.98C149.075 20.486 148.871 19.8187 148.871 18.978V14.87H150.275V18.783C150.275 19.3463 150.405 19.7623 150.665 20.031C150.934 20.291 151.268 20.421 151.666 20.421C152.022 20.421 152.329 20.33 152.589 20.148C152.858 19.9573 153.062 19.7147 153.2 19.42C153.348 19.1167 153.421 18.7873 153.421 18.432V14.87H154.812V21.5H153.499V20.603H153.421C153.231 20.915 152.945 21.1793 152.563 21.396C152.191 21.604 151.779 21.708 151.328 21.708Z" fill="white"/>
<path d="M76.14 41.772C75.2673 41.772 74.4457 41.6133 73.675 41.296C72.9157 40.9787 72.2413 40.5367 71.652 39.97C71.0627 39.392 70.598 38.7177 70.258 37.947C69.9293 37.165 69.765 36.3207 69.765 35.414C69.765 34.5073 69.9293 33.6687 70.258 32.898C70.598 32.116 71.057 31.4417 71.635 30.875C72.2243 30.297 72.9043 29.8493 73.675 29.532C74.4457 29.2147 75.2673 29.056 76.14 29.056C77.0693 29.056 77.925 29.2203 78.707 29.549C79.5003 29.8777 80.1633 30.3367 80.696 30.926L79.404 32.201C79.0073 31.759 78.5313 31.419 77.976 31.181C77.432 30.943 76.82 30.824 76.14 30.824C75.3353 30.824 74.593 31.0167 73.913 31.402C73.233 31.776 72.6833 32.3087 72.264 33C71.856 33.68 71.652 34.4847 71.652 35.414C71.652 36.3433 71.8617 37.1537 72.281 37.845C72.7003 38.525 73.25 39.0577 73.93 39.443C74.61 39.817 75.3523 40.004 76.157 40.004C76.8937 40.004 77.5623 39.868 78.163 39.596C78.7637 39.3127 79.2453 38.916 79.608 38.406C79.982 37.896 80.2087 37.284 80.288 36.57H76.123V34.921H82.039C82.107 35.227 82.141 35.55 82.141 35.89V35.907C82.141 37.0857 81.8803 38.117 81.359 39.001C80.849 39.8737 80.1407 40.5537 79.234 41.041C78.3273 41.5283 77.296 41.772 76.14 41.772ZM87.6149 41.772C86.7195 41.772 85.9319 41.568 85.2519 41.16C84.5719 40.752 84.0392 40.2023 83.6539 39.511C83.2685 38.8197 83.0759 38.0377 83.0759 37.165C83.0759 36.3037 83.2685 35.5273 83.6539 34.836C84.0392 34.1333 84.5719 33.578 85.2519 33.17C85.9319 32.762 86.7195 32.558 87.6149 32.558C88.4989 32.558 89.2809 32.762 89.9609 33.17C90.6409 33.578 91.1735 34.1333 91.5589 34.836C91.9442 35.5273 92.1369 36.3037 92.1369 37.165C92.1369 38.0377 91.9442 38.8197 91.5589 39.511C91.1735 40.2023 90.6409 40.752 89.9609 41.16C89.2809 41.568 88.4989 41.772 87.6149 41.772ZM87.6149 40.089C88.0909 40.089 88.5329 39.9757 88.9409 39.749C89.3489 39.511 89.6775 39.1767 89.9269 38.746C90.1875 38.304 90.3179 37.777 90.3179 37.165C90.3179 36.553 90.1875 36.0317 89.9269 35.601C89.6775 35.159 89.3489 34.8247 88.9409 34.598C88.5329 34.36 88.0909 34.241 87.6149 34.241C87.1389 34.241 86.6912 34.36 86.2719 34.598C85.8639 34.8247 85.5295 35.159 85.2689 35.601C85.0195 36.0317 84.8949 36.553 84.8949 37.165C84.8949 37.777 85.0195 38.304 85.2689 38.746C85.5295 39.1767 85.8639 39.511 86.2719 39.749C86.6912 39.9757 87.1389 40.089 87.6149 40.089ZM97.9078 41.772C97.0125 41.772 96.2248 41.568 95.5448 41.16C94.8648 40.752 94.3322 40.2023 93.9468 39.511C93.5615 38.8197 93.3688 38.0377 93.3688 37.165C93.3688 36.3037 93.5615 35.5273 93.9468 34.836C94.3322 34.1333 94.8648 33.578 95.5448 33.17C96.2248 32.762 97.0125 32.558 97.9078 32.558C98.7918 32.558 99.5738 32.762 100.254 33.17C100.934 33.578 101.467 34.1333 101.852 34.836C102.237 35.5273 102.43 36.3037 102.43 37.165C102.43 38.0377 102.237 38.8197 101.852 39.511C101.467 40.2023 100.934 40.752 100.254 41.16C99.5738 41.568 98.7918 41.772 97.9078 41.772ZM97.9078 40.089C98.3838 40.089 98.8258 39.9757 99.2338 39.749C99.6418 39.511 99.9705 39.1767 100.22 38.746C100.481 38.304 100.611 37.777 100.611 37.165C100.611 36.553 100.481 36.0317 100.22 35.601C99.9705 35.159 99.6418 34.8247 99.2338 34.598C98.8258 34.36 98.3838 34.241 97.9078 34.241C97.4318 34.241 96.9842 34.36 96.5648 34.598C96.1568 34.8247 95.8225 35.159 95.5618 35.601C95.3125 36.0317 95.1878 36.553 95.1878 37.165C95.1878 37.777 95.3125 38.304 95.5618 38.746C95.8225 39.1767 96.1568 39.511 96.5648 39.749C96.9842 39.9757 97.4318 40.089 97.9078 40.089ZM108.031 45.444C107.271 45.444 106.614 45.3193 106.059 45.07C105.515 44.832 105.073 44.5203 104.733 44.135C104.393 43.761 104.149 43.3757 104.002 42.979L105.702 42.265C105.883 42.7183 106.172 43.0867 106.569 43.37C106.977 43.6647 107.464 43.812 108.031 43.812C108.824 43.812 109.447 43.574 109.901 43.098C110.365 42.622 110.598 41.9477 110.598 41.075V40.242H110.496C110.224 40.65 109.844 40.9787 109.357 41.228C108.881 41.466 108.337 41.585 107.725 41.585C106.988 41.585 106.314 41.398 105.702 41.024C105.09 40.65 104.597 40.1287 104.223 39.46C103.849 38.78 103.662 37.9867 103.662 37.08C103.662 36.162 103.849 35.3687 104.223 34.7C104.597 34.02 105.09 33.493 105.702 33.119C106.314 32.745 106.988 32.558 107.725 32.558C108.337 32.558 108.881 32.6827 109.357 32.932C109.844 33.1813 110.224 33.51 110.496 33.918H110.598V32.83H112.349V41.041C112.349 41.9817 112.162 42.7807 111.788 43.438C111.425 44.0953 110.921 44.594 110.275 44.934C109.629 45.274 108.881 45.444 108.031 45.444ZM108.048 39.919C108.501 39.919 108.92 39.8113 109.306 39.596C109.691 39.3693 110.003 39.0463 110.241 38.627C110.479 38.1963 110.598 37.6807 110.598 37.08C110.598 36.4567 110.479 35.9353 110.241 35.516C110.003 35.0853 109.691 34.7623 109.306 34.547C108.92 34.3317 108.501 34.224 108.048 34.224C107.594 34.224 107.169 34.3373 106.773 34.564C106.387 34.7793 106.076 35.0967 105.838 35.516C105.6 35.9353 105.481 36.4567 105.481 37.08C105.481 37.692 105.6 38.2133 105.838 38.644C106.076 39.0633 106.387 39.3807 106.773 39.596C107.169 39.8113 107.594 39.919 108.048 39.919ZM114.514 41.5V29.328H116.35V41.5H114.514ZM122.392 41.772C121.542 41.772 120.783 41.5737 120.114 41.177C119.446 40.7803 118.919 40.2363 118.533 39.545C118.159 38.8537 117.972 38.066 117.972 37.182C117.972 36.3547 118.154 35.5897 118.516 34.887C118.879 34.1843 119.383 33.6233 120.029 33.204C120.687 32.7733 121.44 32.558 122.29 32.558C123.186 32.558 123.945 32.7507 124.568 33.136C125.203 33.5213 125.685 34.0483 126.013 34.717C126.342 35.3857 126.506 36.1393 126.506 36.978C126.506 37.1027 126.501 37.216 126.489 37.318C126.489 37.42 126.484 37.4993 126.472 37.556H119.774C119.865 38.4173 120.165 39.0633 120.675 39.494C121.197 39.9247 121.786 40.14 122.443 40.14C123.033 40.14 123.52 40.0097 123.905 39.749C124.291 39.477 124.597 39.1427 124.823 38.746L126.336 39.477C125.962 40.157 125.452 40.7123 124.806 41.143C124.16 41.5623 123.356 41.772 122.392 41.772ZM122.307 34.122C121.695 34.122 121.174 34.309 120.743 34.683C120.313 35.057 120.024 35.5557 119.876 36.179H124.687C124.665 35.8843 124.568 35.5783 124.398 35.261C124.228 34.9437 123.968 34.6773 123.616 34.462C123.276 34.2353 122.84 34.122 122.307 34.122ZM133.979 41.5L130.715 29.328H132.789L134.727 37.233L134.931 38.287H135.033L135.288 37.233L137.736 29.328H139.606L141.952 37.233L142.207 38.27H142.309L142.513 37.233L144.451 29.328H146.508L143.295 41.5H141.323L138.994 33.425L138.722 32.286H138.62L138.331 33.425L135.9 41.5H133.979ZM149.922 41.772C149.299 41.772 148.743 41.653 148.256 41.415C147.769 41.1657 147.389 40.82 147.117 40.378C146.845 39.936 146.709 39.4317 146.709 38.865C146.709 38.253 146.868 37.7317 147.185 37.301C147.514 36.859 147.95 36.5247 148.494 36.298C149.038 36.0713 149.639 35.958 150.296 35.958C150.84 35.958 151.316 36.009 151.724 36.111C152.143 36.213 152.461 36.3207 152.676 36.434V35.975C152.676 35.4083 152.472 34.955 152.064 34.615C151.656 34.275 151.129 34.105 150.483 34.105C150.041 34.105 149.622 34.207 149.225 34.411C148.828 34.6037 148.511 34.87 148.273 35.21L147.015 34.241C147.389 33.7197 147.882 33.3117 148.494 33.017C149.117 32.711 149.797 32.558 150.534 32.558C151.792 32.558 152.761 32.8697 153.441 33.493C154.121 34.105 154.461 34.9663 154.461 36.077V41.5H152.676V40.429H152.574C152.347 40.7803 152.007 41.092 151.554 41.364C151.101 41.636 150.557 41.772 149.922 41.772ZM150.245 40.276C150.721 40.276 151.14 40.1627 151.503 39.936C151.866 39.7093 152.149 39.4147 152.353 39.052C152.568 38.678 152.676 38.2757 152.676 37.845C152.415 37.6977 152.109 37.5787 151.758 37.488C151.407 37.386 151.033 37.335 150.636 37.335C149.888 37.335 149.355 37.488 149.038 37.794C148.721 38.0887 148.562 38.4513 148.562 38.882C148.562 39.29 148.715 39.6243 149.021 39.885C149.327 40.1457 149.735 40.276 150.245 40.276ZM156.499 41.5V29.328H158.335V41.5H156.499ZM160.517 41.5V29.328H162.353V41.5H160.517ZM168.395 41.772C167.545 41.772 166.786 41.5737 166.117 41.177C165.449 40.7803 164.922 40.2363 164.536 39.545C164.162 38.8537 163.975 38.066 163.975 37.182C163.975 36.3547 164.157 35.5897 164.519 34.887C164.882 34.1843 165.386 33.6233 166.032 33.204C166.69 32.7733 167.443 32.558 168.293 32.558C169.189 32.558 169.948 32.7507 170.571 33.136C171.206 33.5213 171.688 34.0483 172.016 34.717C172.345 35.3857 172.509 36.1393 172.509 36.978C172.509 37.1027 172.504 37.216 172.492 37.318C172.492 37.42 172.487 37.4993 172.475 37.556H165.777C165.868 38.4173 166.168 39.0633 166.678 39.494C167.2 39.9247 167.789 40.14 168.446 40.14C169.036 40.14 169.523 40.0097 169.908 39.749C170.294 39.477 170.6 39.1427 170.826 38.746L172.339 39.477C171.965 40.157 171.455 40.7123 170.809 41.143C170.163 41.5623 169.359 41.772 168.395 41.772ZM168.31 34.122C167.698 34.122 167.177 34.309 166.746 34.683C166.316 35.057 166.027 35.5557 165.879 36.179H170.69C170.668 35.8843 170.571 35.5783 170.401 35.261C170.231 34.9437 169.971 34.6773 169.619 34.462C169.279 34.2353 168.843 34.122 168.31 34.122ZM174.882 38.984V34.428H173.369V32.83H174.882V30.382H176.718V32.83H178.843V34.428H176.718V38.593C176.718 39.0237 176.803 39.3523 176.973 39.579C177.154 39.8057 177.454 39.919 177.874 39.919C178.089 39.919 178.27 39.8907 178.418 39.834C178.576 39.7773 178.735 39.698 178.894 39.596V41.381C178.701 41.4603 178.497 41.5227 178.282 41.568C178.066 41.6133 177.811 41.636 177.517 41.636C176.712 41.636 176.072 41.4037 175.596 40.939C175.12 40.463 174.882 39.8113 174.882 38.984Z" fill="white"/>
<rect x="0.5" y="0.5" width="198" height="54" rx="27" stroke="#747775"/>
<defs>
<linearGradient id="paint0_linear_1819_24320" x1="37.2843" y1="34.0448" x2="18.7823" y2="55.7227" gradientUnits="userSpaceOnUse">
<stop stop-color="#4285F4"/>
<stop offset="1" stop-color="#1B74E8"/>
</linearGradient>
</defs>
</svg>
